<?xml version="1.0" standalone="no"?>
<!DOCTYPE svg PUBLIC "-//W3C//DTD SVG 20010904//EN"
 "http://www.w3.org/TR/2001/REC-SVG-20010904/DTD/svg10.dtd">
<svg version="1.0" xmlns="http://www.w3.org/2000/svg"
 width="200.000000pt" height="200.000000pt" viewBox="0 0 200.000000 200.000000"
 preserveAspectRatio="xMidYMid meet">
<metadata>
Created by potrace 1.14, written by Peter Selinger 2001-2017
</metadata>
<g transform="translate(0.000000,200.000000) scale(0.100000,-0.100000)"
fill="#000000" stroke="none">
<path d="M910 1897 c-3 -2 -27 -7 -55 -10 -124 -14 -302 -93 -422 -188 -162
-129 -295 -358 -321 -554 -9 -63 -9 -236 0 -295 46 -316 306 -612 623 -710 97
-30 142 -35 285 -34 98 0 142 5 205 23 271 77 473 247 590 493 61 128 78 213
78 383 0 134 -3 160 -27 240 -116 384 -433 633 -831 652 -66 3 -122 3 -125 0z
m-347 -406 c4 -1 7 -214 7 -474 l0 -473 473 1 472 0 0 -40 0 -40 -508 0 c-280
0 -511 3 -513 7 -6 9 -5 1008 1 1018 4 6 28 6 68 1z m483 -421 c0 -234 -2
-430 -5 -435 -3 -6 -39 -11 -78 -11 l-73 0 0 432 c0 316 3 433 11 436 7 2 42
4 78 3 l66 -1 1 -424z m-258 131 l22 -1 -2 -287 -3 -288 -77 -3 -78 -3 0 290
0 290 23 3 c12 2 38 2 57 1 19 -1 45 -2 58 -2z m477 0 c20 -1 20 -7 19 -278
-1 -153 -2 -284 -3 -290 -1 -9 -23 -13 -76 -13 -64 0 -75 2 -76 18 -1 9 -2
139 -3 287 l-1 270 24 5 c14 3 41 4 60 3 20 -1 45 -2 56 -2z m256 -330 c0 -39
0 -206 -1 -232 0 -14 -13 -17 -75 -17 -50 0 -76 4 -76 11 -1 7 -3 71 -3 144
l-2 132 66 3 c86 4 90 2 91 -41z"/>
</g>
</svg>
